<svg id="Laag_1" data-name="Laag 1" xmlns="http://www.w3.org/2000/svg" xmlns:xlink="http://www.w3.org/1999/xlink" viewBox="0 0 1080 249.8">
  <defs>
    <linearGradient id="Naamloos_verloop" data-name="Naamloos verloop" x1="516.65" y1="640.38" x2="516.65" y2="757.68" gradientTransform="translate(0 -594.18)" gradientUnits="userSpaceOnUse">
      <stop offset="0.22" stop-color="#7bc57f"/>
      <stop offset="0.91" stop-color="#0bf"/>
    </linearGradient>
  </defs>
  <title>2. Woordmerk_SPARK_V1_Op zwart</title>
  <path d="M88.3,156.7a102.34,102.34,0,0,0,67.8,25.5c17.2,0,25.6-7.2,25.6-17.8,0-11.1-11.9-16.7-27.2-21.1l-16.7-4.7c-33-9.2-49.7-23-49.7-53.6,0-37.8,34.2-53.9,71.9-53.9,32.2,0,55.8,10,64.4,15.6V90c-17.8-12.2-43.6-21.9-65-21.9-13,0-23.9,4.7-23.9,15.6,0,9.7,8.9,15.8,26.4,20.5l19.1,5.3c31.4,8.9,49.2,23.9,49.2,51.7,0,33.3-26.9,57.5-72.5,57.5-39.2,0-60.3-10.6-69.4-15.8Z" style="fill: #fff"/>
  <path d="M267.7,33.7h74.4c54.2,0,82.5,21.9,82.5,63.9,0,40-29.2,63.6-83.3,63.6H315.2v55H267.7V33.7Zm73.6,96.6c23.9,0,35.8-9.7,35.8-31.7,0-20.8-12.5-30.8-35-30.8H315.2v62.5Z" style="fill: #fff"/>
  <path d="M635.7,33.7h76.1c48.9,0,77.8,18.9,77.8,58.6,0,28.9-18.3,45-37.2,51.1l42.5,72.8H743.5l-35-64.2H683.2v64.2H635.7V33.7ZM712,119.2c16.4,0,31.1-5.6,31.1-26.1,0-18.1-12.2-25.5-31.4-25.5H683.1v51.7H712Z" style="fill: #fff"/>
  <path d="M827.3,33.7h47.5v78.6L937,33.7h53.6l-64.2,74.4,65.5,108H939.7l-45.3-76.9-19.7,22.5v54.4H827.2V33.7Z" style="fill: #fff"/>
  <polygon points="542.4 33.7 492.9 33.7 424.9 216.2 473.8 216.2 487.4 176.4 547.4 176.4 561.8 216.2 610.1 216.2 542.4 33.7" style="fill: #fff"/>
  <polygon points="513.1 163.5 513.1 117.7 491.8 117.7 520.2 46.2 520.2 92.1 541.5 92.1 513.1 163.5" style="fill: url(#Naamloos_verloop)"/>
</svg>
