<?xml version="1.0" encoding="utf-8"?>
<!-- Generator: Adobe Illustrator 24.3.0, SVG Export Plug-In . SVG Version: 6.00 Build 0)  -->
<svg version="1.1" id="Laag_1" xmlns="http://www.w3.org/2000/svg" xmlns:xlink="http://www.w3.org/1999/xlink" x="0px" y="0px"
	 viewBox="0 0 904 196" style="enable-background:new 0 0 904 196;" xml:space="preserve">
<style type="text/css">
	.st0{fill:#333333;}
	.st1{fill:url(#SVGID_1_);}
	.st2{fill:#FFFFFF;}
	.st3{fill:url(#SVGID_2_);}
</style>
<path class="st2" d="M0.28,131.8c16.94,15,40.83,25.55,67.77,25.55c17.22,0,25.55-7.22,25.55-17.78c0-11.11-11.94-16.67-27.22-21.11
	l-16.66-4.72C16.67,104.58,0,90.7,0,60.14C0,22.37,34.16,6.26,71.93,6.26c32.22,0,55.83,10,64.44,15.55v43.33
	C118.6,52.92,92.77,43.2,71.38,43.2c-13.06,0-23.89,4.72-23.89,15.55c0,9.72,8.89,15.83,26.39,20.55l19.16,5.28
	c31.39,8.89,49.16,23.89,49.16,51.66c0,33.33-26.94,57.49-72.49,57.49c-39.16,0-60.27-10.55-69.44-15.83V131.8z"/>
<path class="st2" d="M179.69,8.76h74.43c54.16,0,82.49,21.94,82.49,63.88c0,40-29.16,63.6-83.32,63.6h-26.11v54.99h-47.49V8.76z
	 M253.29,105.42c23.89,0,35.83-9.72,35.83-31.66c0-20.83-12.5-30.83-35-30.83h-26.94v62.49H253.29z"/>
<path class="st2" d="M547.67,8.76h76.1c48.88,0,77.77,18.89,77.77,58.6c0,28.88-18.33,44.99-37.22,51.1l42.5,72.77h-51.38l-35-64.16
	h-25.27v64.16h-47.49V8.76z M624.05,94.31c16.39,0,31.11-5.56,31.11-26.11c0-18.05-12.22-25.55-31.39-25.55h-28.61v51.66H624.05z"/>
<path class="st2" d="M739.3,8.76h47.49v78.6L849,8.76h53.61L838.45,83.2L904,191.24h-52.22l-45.27-76.93l-19.72,22.5v54.44H739.3
	V8.76z"/>
<polygon class="st2" points="454.36,8.76 404.92,8.76 336.88,191.24 385.76,191.24 399.37,151.52 459.36,151.52 473.81,191.24 
	522.13,191.24 "/>
<g>
	<linearGradient id="SVGID_1_" gradientUnits="userSpaceOnUse" x1="428.6413" y1="21.3282" x2="428.6413" y2="138.5999">
		<stop  offset="0.218" style="stop-color:#7BC57F"/>
		<stop  offset="0.9111" style="stop-color:#00BBFF"/>
	</linearGradient>
	<polygon class="st1" points="425.13,138.6 425.13,92.78 403.8,92.78 432.24,21.33 432.24,67.15 453.48,67.15 	"/>
</g>
</svg>
