<svg height='100px' width='100px'  fill="#FFFFFF" xmlns="http://www.w3.org/2000/svg" xmlns:xlink="http://www.w3.org/1999/xlink" version="1.1" x="0px" y="0px" viewBox="0 0 128 128" style="enable-background:new 0 0 128 128;" xml:space="preserve"><path d="M105.5,72.3c-5.5,0-10.3,2.8-13.1,7l-10.2-5.9c1.6-2.9,2.5-6.3,2.5-9.8c0-3.3-0.8-6.3-2.1-9.1l10-5.8  c2.8,4.3,7.7,7.1,13.2,7.1c8.8,0,15.9-7.1,15.9-15.9c0-8.8-7.1-15.9-15.9-15.9c-8.8,0-15.9,7.1-15.9,15.9c0,2.5,0.6,4.9,1.7,7  l-10,5.8C78.1,47.2,72,43.4,65,43V31.5c8.2-0.5,14.8-7.4,14.8-15.7C79.8,7.1,72.7,0,64,0c-8.7,0-15.8,7.1-15.8,15.8  c0,8.4,6.5,15.2,14.8,15.7V43c-7,0.3-13.1,4.2-16.6,9.8l-10-5.8c1.1-2.1,1.7-4.5,1.7-7c0-8.8-7.1-15.9-15.9-15.9  c-8.8,0-15.9,7.1-15.9,15.9c0,8.8,7.1,15.9,15.9,15.9c5.5,0,10.4-2.8,13.2-7.1l10,5.8c-1.4,2.7-2.1,5.8-2.1,9.1  c0,3.5,0.9,6.9,2.5,9.8l-10.2,5.9c-2.8-4.2-7.6-7-13.1-7c-4.2,0-8.2,1.6-11.1,4.6s-4.6,6.9-4.6,11.1c0,4.2,1.6,8.2,4.6,11.1  c3,3,6.9,4.6,11.1,4.6c8.7,0,15.8-7.1,15.8-15.8c0-2.5-0.6-4.9-1.7-7l10.3-5.9c3.5,5.3,9.4,8.8,16.2,9.1v12  c-8.3,0.5-14.9,7.4-14.9,15.8c0,8.8,7.1,15.9,15.9,15.9c8.8,0,15.9-7.1,15.9-15.9c0-8.4-6.6-15.3-14.9-15.8v-12  c6.7-0.3,12.6-3.9,16.2-9.1l10.3,5.9c-1.1,2.1-1.7,4.5-1.7,7c0,8.7,7.1,15.8,15.8,15.8s15.8-7.1,15.8-15.8  C121.3,79.4,114.2,72.3,105.5,72.3z M105.8,26.1c7.6,0,13.9,6.2,13.9,13.9c0,4-1.7,7.6-4.4,10.1c0,0-0.1,0-0.1-0.1  c-3.3-2-5.9-2.1-6.3-4.3c-0.1-0.7-0.1-1-0.1-1.6c0,0,1,0.3,2.2,0.3c1.2,0,2.5-0.6,2.5-0.6s-0.5-0.4-0.9-1.4c-0.9-2.4-0.7-4-0.7-6.3  c0-2.3-0.8-4-1.7-4.8c-1.1-1-2.6-1.9-4.4-1.2c-1.8-0.7-3.3,0.2-4.4,1.2c-0.9,0.9-1.7,2.5-1.7,4.8c0,2.3,0.2,3.9-0.7,6.3  c-0.4,1.1-0.9,1.4-0.9,1.4s1.2,0.6,2.5,0.6c1.2,0,2.2-0.3,2.2-0.3c0,0.7,0,1-0.1,1.6c-0.3,2.1-2.9,2.3-6.3,4.3c0,0-0.1,0-0.1,0.1  c-2.7-2.5-4.4-6.1-4.4-10.1C91.9,32.3,98.1,26.1,105.8,26.1z M31.7,50.1c0,0-0.1,0-0.1-0.1c-3.3-2-5.9-2.1-6.3-4.3  c-0.1-0.7-0.1-1-0.1-1.6c0,0,1,0.3,2.2,0.3c1.2,0,2.5-0.6,2.5-0.6s-0.5-0.4-0.9-1.4c-0.9-2.4-0.7-4-0.7-6.3c0-2.3-0.8-4-1.7-4.8  c-1.1-1-2.6-1.9-4.4-1.2c-1.8-0.7-3.3,0.2-4.4,1.2C17,32,16.2,33.7,16.1,36c0,2.3,0.2,3.9-0.7,6.3c-0.4,1.1-0.9,1.4-0.9,1.4  s1.2,0.6,2.5,0.6c1.2,0,2.2-0.3,2.2-0.3c0,0.7,0,1-0.1,1.6c-0.3,2.1-2.9,2.3-6.3,4.3c0,0-0.1,0-0.1,0.1C10,47.6,8.4,44,8.3,40  c0-7.7,6.2-13.9,13.9-13.9c7.7,0,13.9,6.2,13.9,13.9C36.1,44,34.4,47.6,31.7,50.1z M32.2,97.9c-1.2-0.9-2.9-1.5-4-1.9  c-1.5-0.5-2-0.9-2.4-1.4c-0.4-0.5-0.2-2.7-0.2-2.7s0.8-1.1,1.1-1.9c0.3-0.7,0.3-2.1,0.3-2.1s0.7-0.5,0.9-1c0.2-0.6,0.3-1.5,0.2-2  c-0.1-0.4-0.7-0.3-0.7-0.3s0-0.8,0-1.4c0-0.8-0.2-4.8-4.9-4.8c-4.7,0-4.9,4-4.9,4.8c0,0.6,0,1.4,0,1.4s-0.5-0.1-0.7,0.3  c-0.1,0.4,0,1.4,0.2,2c0.2,0.6,0.9,1,0.9,1s0.1,1.4,0.3,2.1c0.3,0.7,1.1,1.9,1.1,1.9s0.2,2.2-0.2,2.7c-0.4,0.5-0.9,0.8-2.4,1.4  c-1.1,0.4-2.8,1-4,1.9c0,0,0,0,0,0c-2.6-2.6-4-6.1-4-9.7c0-3.7,1.4-7.1,4-9.7c2.6-2.6,6.1-4,9.7-4c7.6,0,13.8,6.2,13.8,13.8  C36.2,91.9,34.7,95.4,32.2,97.9z M59.1,10.8c0,0.6,0,1.4,0,1.4s-0.5-0.1-0.7,0.3c-0.1,0.4,0,1.4,0.2,2c0.2,0.6,0.9,1,0.9,1  s0.1,1.4,0.3,2.1c0.3,0.7,1.1,1.9,1.1,1.9s0.2,2.2-0.2,2.7c-0.4,0.5-0.9,0.8-2.4,1.4c-1.1,0.4-2.8,1-4,1.9c-2.5-2.5-4.1-5.9-4.1-9.8  C50.2,8.2,56.4,2,64,2s13.8,6.2,13.8,13.8c0,3.8-1.6,7.3-4.1,9.8c-1.2-0.9-2.9-1.5-4-1.9c-1.5-0.5-2-0.9-2.4-1.4  c-0.4-0.5-0.2-2.7-0.2-2.7s0.8-1.1,1.1-1.9c0.3-0.7,0.3-2.1,0.3-2.1s0.7-0.5,0.9-1c0.2-0.6,0.3-1.5,0.2-2c-0.1-0.4-0.7-0.3-0.7-0.3  s0-0.8,0-1.4C68.9,10,68.7,6,64,6C59.3,6,59.1,10,59.1,10.8z M77.9,112.1c0,4-1.7,7.6-4.4,10.1c0,0-0.1,0-0.1-0.1  c-3.3-2-5.9-2.1-6.3-4.3c-0.1-0.7-0.1-1-0.1-1.6c0,0,1,0.3,2.2,0.3c1.2,0,2.5-0.6,2.5-0.6s-0.5-0.4-0.9-1.4c-0.9-2.4-0.7-4-0.7-6.3  c0-2.3-0.8-4-1.7-4.9c-1.1-1-2.6-1.9-4.4-1.2c-1.8-0.7-3.3,0.2-4.4,1.2c-0.9,0.9-1.7,2.5-1.7,4.9c0,2.3,0.2,3.9-0.7,6.3  c-0.4,1.1-0.9,1.4-0.9,1.4s1.2,0.6,2.5,0.6c1.2,0,2.2-0.3,2.2-0.3c0,0.7,0,1-0.1,1.6c-0.3,2.1-2.9,2.3-6.3,4.3c0,0-0.1,0-0.1,0.1  c-2.7-2.5-4.4-6.1-4.4-10.1c0-7.6,6.2-13.9,13.9-13.9C71.6,98.2,77.9,104.5,77.9,112.1z M77.2,76.9c-1.6-1.3-4.1-2.2-5.6-2.8  c-2-0.7-2.7-1.1-3.2-1.8c-0.5-0.7-0.3-3.6-0.3-3.6s1.1-1.5,1.5-2.5c0.4-1,0.4-2.8,0.4-2.8s0.9-0.6,1.2-1.4c0.2-0.8,0.4-2,0.3-2.6  c-0.2-0.6-0.9-0.4-0.9-0.4s0-1,0-1.8c0-1.1-0.2-6.5-6.5-6.5c-6.3,0-6.6,5.4-6.5,6.5c0,0.8,0,1.8,0,1.8s-0.7-0.2-0.9,0.4  c-0.2,0.6,0,1.9,0.3,2.6c0.2,0.8,1.2,1.4,1.2,1.4s0.1,1.8,0.4,2.8c0.4,1,1.5,2.5,1.5,2.5s0.2,2.9-0.3,3.6c-0.5,0.7-1.2,1.1-3.2,1.8  c-1.6,0.6-4,1.5-5.6,2.8c-3.4-3.4-5.5-8.1-5.5-13.2c0-3.2,0.8-6.2,2.2-8.8c0.1-0.1,0.1-0.1,0.2-0.2c0-0.1,0-0.1,0.1-0.2  C50.9,48.8,57,45,64,45c0,0,0,0,0,0c0,0,0,0,0,0c7,0,13.1,3.9,16.3,9.6c0,0,0,0.1,0,0.1c0,0.1,0.1,0.1,0.1,0.1  c1.4,2.6,2.2,5.6,2.2,8.8C82.7,68.8,80.6,73.5,77.2,76.9z M115.2,97.9c-1.2-0.9-2.9-1.5-4-1.9c-1.5-0.5-2-0.9-2.4-1.4  c-0.4-0.5-0.2-2.7-0.2-2.7s0.8-1.1,1.1-1.9c0.3-0.7,0.3-2.1,0.3-2.1s0.7-0.5,0.9-1c0.2-0.6,0.3-1.5,0.2-2c-0.1-0.4-0.7-0.3-0.7-0.3  s0-0.8,0-1.4c0-0.8-0.2-4.8-4.9-4.8c-4.7,0-4.9,4-4.9,4.8c0,0.6,0,1.4,0,1.4s-0.5-0.1-0.7,0.3c-0.1,0.4,0,1.4,0.2,2  c0.2,0.6,0.9,1,0.9,1s0.1,1.4,0.3,2.1c0.3,0.7,1.1,1.9,1.1,1.9s0.2,2.2-0.2,2.7c-0.4,0.5-0.9,0.8-2.4,1.4c-1.1,0.4-2.8,1-4,1.9  c-2.5-2.5-4.1-5.9-4.1-9.8c0-7.6,6.2-13.8,13.8-13.8s13.8,6.2,13.8,13.8C119.3,91.9,117.7,95.4,115.2,97.9z"></path></svg>