<svg height='100px' width='100px'  fill="#FFFFFF" xmlns="http://www.w3.org/2000/svg" data-name="Layer 1" viewBox="0 0 64 64" x="0px" y="0px"><title>dynamic-static-step-plan-dynamics</title><circle cx="32" cy="7" r="4"></circle><circle cx="32" cy="19" r="4"></circle><circle cx="32" cy="31" r="4"></circle><circle cx="32" cy="43" r="4"></circle><circle cx="32" cy="55" r="4"></circle><path d="M55,6H38V8H55a5,5,0,0,1,0,10H38v2H55A7,7,0,0,0,55,6Z"></path><path d="M55,30H38v2H55a5,5,0,0,1,0,10H38v2H55a7,7,0,0,0,0-14Z"></path><path d="M9,56H26V54H9A5,5,0,0,1,9,44H26V42H9A7,7,0,0,0,9,56Z"></path><path d="M9,32H26V30H9A5,5,0,0,1,9,20H26V18H9A7,7,0,0,0,9,32Z"></path><path d="M38,56H61a.99991.99991,0,0,0,.707-1.707l-5-5L55.293,50.707,58.58594,54H38Z"></path><path d="M25.94336,7.33105a1.00156,1.00156,0,0,0-.31836-1.1123l-5-4-1.25,1.5625L22.14941,6H2V8H25A1,1,0,0,0,25.94336,7.33105Z"></path><rect x="2" y="12" width="2" height="2"></rect><rect x="6" y="12" width="2" height="2"></rect><rect x="10" y="12" width="2" height="2"></rect><rect x="14" y="12" width="2" height="2"></rect><rect x="18" y="12" width="2" height="2"></rect><rect x="22" y="12" width="2" height="2"></rect><rect x="38" y="60" width="2" height="2"></rect><rect x="42" y="60" width="2" height="2"></rect><rect x="46" y="60" width="2" height="2"></rect><rect x="50" y="60" width="2" height="2"></rect><rect x="54" y="60" width="2" height="2"></rect><rect x="58" y="60" width="2" height="2"></rect></svg>