<svg height='100px' width='100px'  fill="#FFFFFF" xmlns="http://www.w3.org/2000/svg" data-name="Layer 1" viewBox="0 0 100 100" x="0px" y="0px"><title>86</title><g data-name="Group"><path data-name="Path" d="M37.4,31.1a2,2,0,0,0-2.6.3L7.2,61a2,2,0,1,0,2.9,2.7L36.6,35.4,53.7,47a2,2,0,0,0,2.6-.3l28-30.7V35.1a2,2,0,0,0,4,0V10.8h0V9.6h-.1V9.3H62a2,2,0,1,0,0,4H81.7L54.5,42.7Z"></path><path data-name="Path" d="M94.5,87.2H88V46.5a2,2,0,1,0-4,0V87.2H76V39.5a2,2,0,1,0-4,0V87.2H64V52.5a2,2,0,0,0-4,0V87.2H52V58.5a2,2,0,0,0-4,0V87.2H40V47.5a2,2,0,0,0-4,0V87.2H28V60.5a2,2,0,0,0-4,0V87.2H16V71.5a2,2,0,0,0-4,0V87.2H5.5a2,2,0,1,0,0,4h89a2,2,0,0,0,0-4Z"></path></g></svg>