<svg height='100px' width='100px'  fill="#333333" xmlns="http://www.w3.org/2000/svg" xmlns:xlink="http://www.w3.org/1999/xlink" version="1.1" x="0px" y="0px" viewBox="0 0 96 96" enable-background="new 0 0 96 96" xml:space="preserve"><path d="M88.779,28.22c0-10.268-8.352-18.62-18.615-18.62c-0.592,0-1.172,0.044-1.752,0.112C64.348,4.068,57.92,0.736,50.96,0.736  c-6.972,0-13.404,3.336-17.468,8.992c-9.252-1.204-17.024,5.84-17.392,14.7c-5.368,2.54-8.88,7.972-8.88,13.948  c0,8.536,6.944,15.483,15.48,15.483c0.764,0,1.488-0.107,2.224-0.271c3.276,15.305,1.324,35.172-1.856,38.24  c-0.584,0.568-0.772,1.432-0.468,2.188c0.308,0.752,1.04,1.252,1.856,1.252h42.2c0.023,0,0.052,0,0.08,0c1.1,0,2-0.899,2-2  c0-0.672-0.328-1.252-0.828-1.623c-2.608-3.612-4.092-21.572-0.385-34c1.336,0.383,2.656,0.58,3.929,0.58  c8.536,0,15.479-6.929,15.479-15.444c0-1.7-0.275-3.364-0.824-4.968C87.864,34.9,88.779,31.612,88.779,28.22L88.779,28.22z   M21.836,35.964c-1.084,0.388-1.752,1.312-1.752,2.416s-0.892,2-2,2c-1.104,0-2-0.896-2-2c0-2.792,1.728-5.22,4.4-6.18  c1.04-0.376,2.184,0.164,2.56,1.208C23.416,34.444,22.876,35.588,21.836,35.964z M31.564,22.464c-1.36,0-2.504,1.06-2.608,2.416  c-0.08,1.048-0.956,1.848-1.992,1.848c-0.052,0-0.1,0-0.156-0.004c-1.1-0.084-1.924-1.044-1.84-2.148  c0.26-3.424,3.16-6.108,6.596-6.108c1.104,0,2,0.896,2,2C33.564,21.572,32.668,22.464,31.564,22.464z M38.5,84.477  c-0.152,0.991-1,1.703-1.976,1.703c-0.096,0-0.196-0.008-0.3-0.023c-1.092-0.164-1.844-1.18-1.68-2.272  c1.584-10.567,0.976-24.772-1.488-34.556c-0.268-1.072,0.38-2.16,1.452-2.428c1.072-0.264,2.16,0.38,2.428,1.452  C39.512,58.584,40.16,73.436,38.5,84.477z M50.952,13.6c-2.976,0-5.72,1.536-7.34,4.112c-0.38,0.604-1.032,0.932-1.696,0.932  c-0.364,0-0.732-0.1-1.064-0.308c-0.932-0.588-1.216-1.824-0.624-2.756c2.36-3.748,6.368-5.98,10.728-5.98c1.104,0,2,0.896,2,2  S52.064,13.6,50.952,13.6z M59.809,52.641c-3.017,8.344-4.185,20.92-2.912,31.295c0.131,1.088-0.648,2.088-1.744,2.229  c-0.084,0.012-0.168,0.016-0.252,0.016c-1,0-1.86-0.744-1.984-1.756c-1.344-10.936-0.084-24.256,3.12-33.14  c0.38-1.04,1.521-1.568,2.56-1.196C59.645,50.452,60.18,51.6,59.809,52.641z M71.452,49.288c-1.101,0-2-0.896-2-2s0.899-2,2-2  c1.491,0,2.616-1.096,2.616-2.548c0-0.34-0.064-0.648-0.2-0.972c-0.425-1.016,0.044-2.192,1.067-2.62  c1.008-0.424,2.188,0.044,2.616,1.064c0.349,0.824,0.517,1.652,0.517,2.532C78.072,46.412,75.168,49.288,71.452,49.288z   M77.916,30.22c-1.1,0-2-0.896-2-2c0-3.172-2.584-5.752-5.752-5.752c-1.104,0-2-0.896-2-2c0-1.104,0.896-2,2-2  c5.38,0,9.752,4.376,9.752,9.752C79.916,29.324,79.023,30.22,77.916,30.22z"></path></svg>