<svg id="Laag_1" data-name="Laag 1" xmlns="http://www.w3.org/2000/svg" viewBox="0 0 1080 1080">
  <title>3. Woordmerk_SPARK_V1_Zwart-wit</title>
  <path d="M88.28,571.8a102.68,102.68,0,0,0,67.77,25.55c17.22,0,25.55-7.22,25.55-17.77,0-11.11-11.94-16.67-27.22-21.11l-16.66-4.72c-33-9.17-49.72-23-49.72-53.61,0-37.77,34.16-53.88,71.93-53.88,32.22,0,55.83,10,64.44,15.56v43.32c-17.77-12.22-43.6-21.94-65-21.94-13,0-23.89,4.72-23.89,15.56,0,9.72,8.89,15.83,26.39,20.55L181,524.59c31.39,8.88,49.16,23.88,49.16,51.66,0,33.32-26.94,57.49-72.49,57.49-39.16,0-60.27-10.56-69.43-15.83Z" style="fill: #fff"/>
  <path d="M267.69,448.76h74.43c54.16,0,82.49,21.94,82.49,63.88,0,40-29.16,63.61-83.32,63.61H315.18v55H267.69Zm73.6,96.66c23.89,0,35.83-9.72,35.83-31.67,0-20.83-12.5-30.83-35-30.83H315.18v62.5Z" style="fill: #fff"/>
  <path d="M635.67,448.76h76.1c48.88,0,77.77,18.89,77.77,58.61,0,28.88-18.33,45-37.22,51.1l42.5,72.77H743.44l-35-64.16H683.17v64.16h-47.5Zm76.38,85.55c16.39,0,31.11-5.56,31.11-26.11,0-18.06-12.22-25.55-31.39-25.55h-28.6v51.66Z" style="fill: #fff"/>
  <path d="M827.3,448.76h47.49v78.6L937,448.76h53.61L926.45,523.2l65.55,108H939.78L894.51,554.3l-19.72,22.5v54.44H827.3Z" style="fill: #fff"/>
  <path d="M542.36,448.76H492.92l-68,182.48h48.88l13.61-39.72h60l14.45,39.72h48.32ZM513.13,578.6V532.78H491.8l28.44-71.45v45.82h21.24Z" style="fill: #fff"/>
</svg>
